# xmcd CD database file
#
# Track frame offsets:
#	150
#	22984
#	46783
#	77368
#	96330
#	127739
#
# Disc length: 2157 seconds
#
# Revision: 0
# Processed by: cddbd v1.5PL3 Copyright (c) Steve Scherf et al.
# Submitted via: CDex 1.50beta8
#
DISCID=35086b06
DTITLE=A-Show - DEAR OTIS
DYEAR=1900
DGENRE=Blues
TTITLE0=01 シンジルモノハスクワレルラシイ
TTITLE1=02　What
TTITLE2=03 POSITIVEな凡人のblues
TTITLE3=04 Hard Times
TTITLE4=05 the SLUMPMAN
TTITLE5=06 DEAR OTIS
EXTD=
EXTT0=
EXTT1=
EXTT2=
EXTT3=
EXTT4=
EXTT5=
PLAYORDER=
